<?xml version="1.0" encoding="UTF-8"?>
<!DOCTYPE svg PUBLIC "-//W3C//DTD SVG 1.1//EN" "http://www.w3.org/Graphics/SVG/1.1/DTD/svg11.dtd">
<!-- Creator: CorelDRAW X7 -->
<svg xmlns="http://www.w3.org/2000/svg" xml:space="preserve" width="33mm" height="32mm" version="1.1" style="shape-rendering:geometricPrecision; text-rendering:geometricPrecision; image-rendering:optimizeQuality; fill-rule:evenodd; clip-rule:evenodd"
viewBox="0 0 3300 3200"
 xmlns:xlink="http://www.w3.org/1999/xlink">
 <defs>
  <style type="text/css">
   <![CDATA[
    .str1 {stroke:#2B2A29;stroke-width:17.64}
    .str0 {stroke:#2B2A29;stroke-width:17.64}
    .str2 {stroke:#2B2A29;stroke-width:7.62}
    .fil10 {fill:none}
    .fil0 {fill:#FEFEFE}
    .fil1 {fill:#2B2A29}
    .fil5 {fill:#053F4B}
    .fil11 {fill:#080C16}
    .fil13 {fill:#1E859D}
    .fil4 {fill:#279590}
    .fil8 {fill:#313B5D}
    .fil9 {fill:#405CCD}
    .fil7 {fill:#474C54}
    .fil2 {fill:#494A47}
    .fil6 {fill:#8F738E}
    .fil3 {fill:#9C9CE5}
    .fil14 {fill:#A1FDFD}
    .fil12 {fill:#F5C7F3}
   ]]>
  </style>
 </defs>
 <g id="Слой_x0020_1">
  <metadata id="CorelCorpID_0Corel-Layer"/>
  <path class="fil0" d="M1092 3002l212 0c-58,80 -121,82 -212,0zm221 141l-468 0c5,-218 58,-183 93,-224 162,-185 5,-199 683,-199 -6,307 -119,87 -70,317l-36 36c-59,39 -128,60 -202,70zm-221 -141l0 0zm282 -141l11 10c-1,0 -14,-7 -11,-10zm-141 -35c39,-40 202,57 44,13 -4,-1 -86,31 -44,-13z"/>
  <path class="fil0" d="M2044 2861l0 0zm-176 282l-297 0c-75,-3 -42,-18 -56,-70l36 -36c193,-14 235,-143 242,-297 0,-10 1,-14 5,-20 105,0 216,-4 320,-3 160,3 147,-13 244,73 -5,236 -153,186 -450,221 -65,88 2,-13 -26,74 -8,25 -5,36 -18,58zm177 -281l-1 -44 65 7 -64 37z"/>
  <path class="fil0" d="M2821 2826c-55,41 -16,41 -71,0l71 0zm0 0l0 -106 -353 0c19,214 91,53 61,308 -139,104 -46,-123 -167,115l388 0c3,-6 5,-24 6,-20 0,0 -19,-94 164,-197 294,-164 233,-25 253,-206l-282 0c-5,7 -12,9 -14,21 -2,11 -12,17 -14,21 -22,32 -20,32 -42,64z"/>
  <path class="fil0" d="M34 3143l317 0c4,-6 6,-24 6,-19 3,20 23,-279 276,-298l0 -106c-630,0 -238,-69 -454,253 -86,128 8,97 -145,64l0 106z"/>
  <path class="fil0" d="M1814 39l0 375 -175 255 -258 80 393 -710 40 0zm0 0l0 375 175 255 258 80 -394 -710 -39 0z"/>
  <path class="fil1 str0" d="M2039 881c150,50 275,100 425,200 150,125 275,225 431,398 -249,270 -523,447 -931,552 -100,25 -225,25 -325,0 -437,-130 -577,-280 -925,-550 391,-345 580,-547 925,-615 114,-23 258,-26 400,15z"/>
  <path class="fil0 str0" d="M1987 1005c118,39 215,78 332,156 117,98 215,176 337,312 -100,98 -150,162 -267,233 -118,71 -304,148 -460,197 -78,20 -176,20 -254,0 -341,-101 -451,-218 -722,-429 305,-269 453,-427 722,-480 89,-18 202,-21 312,11z"/>
  <circle class="fil1 str1" cx="1814" cy="1449" r="356"/>
  <path class="fil2" d="M2038 1438c-56,141 -5,43 -59,62 -41,120 -129,112 -274,107l-59 -114c-45,38 -29,34 -29,-24l-39 9c-13,-28 27,21 -8,-6 93,399 619,184 458,-138 -4,-26 -127,-90 10,104z"/>
  <path class="fil3" d="M1755 1265l110 -39 53 79 53 21 -2 102 69 10 -24 -122c-80,-124 -233,-129 -306,-83l47 32z"/>
  <path class="fil4" d="M1979 1500c-153,57 -104,38 -253,3l-80 -10 59 114c145,5 233,13 274,-107z"/>
  <path class="fil5" d="M1767 1441c-21,130 -4,35 -41,62 149,35 100,54 253,-3l-10 -72 -82 -55 -58 83 -62 -15z"/>
  <path class="fil6" d="M1628 1291c-33,55 -29,49 -38,61l68 9 89 -10 66 -79 105 33 -53 -79 -110 39c-119,60 -83,79 -127,26z"/>
  <polygon class="fil7" points="1747,1351 1887,1373 1969,1428 1971,1326 1918,1305 1813,1272 "/>
  <path class="fil8" d="M1663 1459l-17 34 80 10c37,-27 20,68 41,-62l-20 -90 -89 10 5 98z"/>
  <path class="fil9" d="M1577 1488l40 -19 46 -10 -5 -98 -68 -9c-22,83 -15,106 -13,136z"/>
  <circle class="fil10 str2" cx="1814" cy="1449" r="244"/>
  <polygon class="fil11" points="1767,1441 1829,1456 1887,1373 1747,1351 "/>
  <path class="fil12" d="M1631 1295c40,47 6,31 124,-30l-46 -32c-65,45 -65,44 -78,62z"/>
  <path class="fil13" d="M1979 1500c54,-19 3,79 59,-62l-69 -10 10 72z"/>
  <path class="fil14" d="M1646 1493l17 -34 -46 10c0,58 -16,62 29,24z"/>
  <circle class="fil1 str2" cx="1814" cy="1449" r="69"/>
  <polygon class="fil0" points="764,1781 920,1918 789,2206 2839,2206 2739,1918 2895,1781 3244,2436 364,2431 "/>
 </g>
</svg>
